<svg width="6245" height="1349" viewBox="0 0 6245 1349" fill="none" xmlns="http://www.w3.org/2000/svg">
<g clip-path="url(#clip0_339_360)">
<path d="M2117.41 931.188H2029.56V910.086C2029.56 904.959 2030.19 897.282 2031.45 888.341C2011.36 917.764 1980.01 938.89 1938.6 938.89C1875.23 938.89 1827.55 888.341 1827.55 804.53V619H1916.01V799.428C1916.01 842.918 1942.99 865.332 1972.48 865.332C1998.83 865.332 2027.69 844.231 2029.58 802.003V619.025H2117.43V931.188H2117.41Z" fill="#1A4D8F"/>
<path d="M2427.6 932.509C2389.96 932.509 2364.24 912.027 2350.44 879.409C2332.88 909.476 2295.86 938.924 2241.26 938.924C2173.49 938.924 2138.98 894.145 2138.98 847.435C2138.98 795.622 2180.39 745.073 2265.72 745.073C2291.44 745.073 2316.53 748.268 2339.75 752.751V742.522C2339.75 711.811 2319.06 691.329 2285.17 691.329C2261.32 691.329 2241.89 702.202 2229.33 722.684L2167.86 675.973C2167.86 675.973 2203.01 612 2289.57 612C2374.9 612 2426.97 663.813 2426.97 738.683V832.723C2426.97 844.24 2434.5 851.274 2445.8 851.274H2502.75V932.534H2427.6V932.509ZM2339.75 808.402C2323.43 805.207 2303.37 802.012 2291.44 802.012C2255.69 802.012 2228.07 814.173 2228.07 839.757C2228.07 857.044 2240.63 868.561 2263.83 868.561C2300.87 868.536 2328.48 842.308 2339.75 808.402Z" fill="#1A4D8F"/>
<path d="M2555.18 938.915H2467.35V626.703H2555.18V647.804C2555.18 652.931 2554.54 660.609 2553.31 669.55C2573.39 640.126 2604.12 619 2646.16 619C2709.53 619 2757.21 669.55 2757.21 753.336V938.866H2668.75V758.438C2668.75 714.947 2641.77 692.533 2612.28 692.533C2585.93 692.533 2556.44 714.279 2555.18 755.862V938.915Z" fill="#1A4D8F"/>
<path d="M2817.66 626.328V515H2905.49V626.328H2948.77V709.495H2905.49V938.54H2817.66V709.495H2774.98V626.328H2817.66Z" fill="#1A4D8F"/>
<path d="M3260.15 931.188H3172.3V910.086C3172.3 904.959 3172.93 897.282 3174.19 888.341C3154.1 917.764 3122.75 938.89 3081.33 938.89C3017.96 938.89 2970.29 888.341 2970.29 804.53V619H3058.74V799.428C3058.74 842.918 3085.73 865.332 3115.22 865.332C3141.57 865.332 3170.43 844.231 3172.32 802.003V619.025H3260.17V931.188H3260.15Z" fill="#1A4D8F"/>
<path d="M3290.51 938.89V626.678H3378.36V642.677C3378.36 648.448 3377.1 658.677 3375.86 668.262C3394.05 638.195 3423.54 619 3459.92 619C3504.47 619 3531.45 640.102 3545.88 670.194C3567.84 640.126 3601.72 619 3643.13 619C3705.87 619 3744.15 662.491 3744.15 737.362V938.89H3656.3V743.751C3656.3 709.845 3632.45 692.558 3608.62 692.558C3584.77 692.558 3560.94 709.845 3560.94 746.302V938.866H3473.11V741.82C3473.11 709.821 3451.15 694.465 3427.93 694.465C3404.08 694.465 3379.62 711.109 3378.36 743.083V938.866H3290.51V938.89Z" fill="#1A4D8F"/>
<path d="M1252 671.676C1252 528.618 1366.66 411 1508.36 411C1648.66 411 1764.03 528.646 1764.03 671.704C1764.03 735.601 1741.95 793.707 1704.92 838.713L1746.94 881.555L1689.95 938.93L1644.38 892.462C1604.49 917.875 1558.2 933.139 1508.36 933.139C1366.66 933.083 1252 816.196 1252 671.676ZM1573.89 821.256L1531.16 776.953L1588.14 719.578L1633.71 766.046C1649.37 739.902 1658.64 707.94 1658.64 671.648C1658.64 575.788 1594.54 508.265 1508.39 508.265C1421.49 508.265 1357.42 576.519 1357.42 671.648C1357.42 768.238 1421.52 835.762 1508.39 835.762C1531.88 835.79 1554.65 830.702 1573.89 821.256Z" fill="#1A4D8F"/>
<path d="M4012.44 832.465L4112.97 480.926H4225.59L4070.77 932.683H3997.23L4012.44 832.465ZM3920.91 480.926L4021.12 832.465L4036.95 932.683H3962.48L3808.59 480.926H3920.91ZM4328.48 596.968V932.683H4231.37V596.968H4328.48ZM4225.47 510.092C4225.47 496.026 4230.43 484.546 4240.36 475.652C4250.29 466.55 4263.32 462 4279.46 462C4295.59 462 4308.62 466.55 4318.55 475.652C4328.69 484.546 4333.76 496.026 4333.76 510.092C4333.76 523.951 4328.69 535.431 4318.55 544.532C4308.62 553.427 4295.59 557.874 4279.46 557.874C4263.32 557.874 4250.29 553.427 4240.36 544.532C4230.43 535.431 4225.47 523.951 4225.47 510.092ZM4545.24 839.291C4545.24 833.086 4543.27 827.604 4539.34 822.847C4535.62 818.089 4528.79 813.745 4518.86 809.815C4509.14 805.885 4495.39 801.955 4477.6 798.025C4460.84 794.508 4445.23 789.958 4430.75 784.373C4416.27 778.581 4403.65 771.652 4392.89 763.585C4382.14 755.311 4373.76 745.589 4367.76 734.419C4361.76 723.042 4358.76 710.114 4358.76 695.635C4358.76 681.569 4361.76 668.227 4367.76 655.61C4373.97 642.992 4382.86 631.822 4394.44 622.1C4406.24 612.378 4420.51 604.725 4437.26 599.14C4454.22 593.555 4473.46 590.763 4494.97 590.763C4524.55 590.763 4550.1 595.417 4571.61 604.725C4593.12 613.826 4609.67 626.651 4621.25 643.199C4632.84 659.54 4638.63 678.26 4638.63 699.358H4541.82C4541.82 690.67 4540.17 683.121 4536.86 676.708C4533.55 670.296 4528.48 665.332 4521.66 661.815C4514.83 658.092 4505.83 656.23 4494.66 656.23C4485.98 656.23 4478.32 657.782 4471.7 660.884C4465.29 663.78 4460.22 667.814 4456.5 672.985C4452.98 678.156 4451.22 684.155 4451.22 690.981C4451.22 695.738 4452.26 700.082 4454.33 704.012C4456.6 707.735 4460.02 711.252 4464.57 714.561C4469.32 717.664 4475.43 720.457 4482.87 722.939C4490.53 725.421 4499.83 727.8 4510.8 730.075C4534.17 734.419 4555.48 740.521 4574.71 748.381C4594.16 756.241 4609.67 767.101 4621.25 780.96C4633.04 794.819 4638.94 813.125 4638.94 835.878C4638.94 850.771 4635.53 864.423 4628.7 876.834C4622.08 889.245 4612.46 900.104 4599.85 909.413C4587.23 918.721 4572.13 925.96 4554.55 931.132C4536.96 936.303 4517.11 938.888 4494.97 938.888C4463.33 938.888 4436.54 933.2 4414.61 921.823C4392.69 910.447 4376.14 896.174 4364.97 879.006C4354.01 861.631 4348.52 843.842 4348.52 825.639H4439.43C4439.85 836.809 4442.64 845.91 4447.81 852.943C4453.19 859.976 4460.12 865.147 4468.6 868.457C4477.08 871.559 4486.6 873.111 4497.14 873.111C4507.69 873.111 4516.49 871.663 4523.52 868.767C4530.55 865.871 4535.93 861.941 4539.65 856.977C4543.38 851.805 4545.24 845.91 4545.24 839.291ZM4763.23 596.968V932.683H4666.12V596.968H4763.23ZM4660.22 510.092C4660.22 496.026 4665.19 484.546 4675.12 475.652C4685.05 466.55 4698.08 462 4714.21 462C4730.35 462 4743.38 466.55 4753.31 475.652C4763.44 484.546 4768.51 496.026 4768.51 510.092C4768.51 523.951 4763.44 535.431 4753.31 544.532C4743.38 553.427 4730.35 557.874 4714.21 557.874C4698.08 557.874 4685.05 553.427 4675.12 544.532C4665.19 535.431 4660.22 523.951 4660.22 510.092ZM4787.31 768.239V761.723C4787.31 737.108 4790.83 714.458 4797.86 693.773C4804.89 672.882 4815.24 654.782 4828.89 639.476C4842.54 624.169 4859.29 612.275 4879.15 603.794C4899.01 595.107 4921.76 590.763 4947.41 590.763C4973.48 590.763 4996.44 595.107 5016.29 603.794C5036.36 612.275 5053.22 624.169 5066.87 639.476C5080.52 654.782 5090.86 672.882 5097.89 693.773C5104.93 714.458 5108.44 737.108 5108.44 761.723V768.239C5108.44 792.647 5104.93 815.297 5097.89 836.188C5090.86 856.873 5080.52 874.972 5066.87 890.486C5053.22 905.793 5036.46 917.686 5016.6 926.167C4996.75 934.648 4973.89 938.888 4948.03 938.888C4922.38 938.888 4899.53 934.648 4879.46 926.167C4859.4 917.686 4842.54 905.793 4828.89 890.486C4815.24 874.972 4804.89 856.873 4797.86 836.188C4790.83 815.297 4787.31 792.647 4787.31 768.239ZM4884.43 761.723V768.239C4884.43 781.477 4885.46 793.888 4887.53 805.471C4889.81 817.055 4893.42 827.19 4898.39 835.878C4903.35 844.566 4909.87 851.392 4917.94 856.356C4926.21 861.113 4936.24 863.492 4948.03 863.492C4959.82 863.492 4969.75 861.113 4977.82 856.356C4985.89 851.392 4992.4 844.566 4997.37 835.878C5002.33 827.19 5005.85 817.055 5007.92 805.471C5010.19 793.888 5011.33 781.477 5011.33 768.239V761.723C5011.33 748.691 5010.19 736.487 5007.92 725.111C5005.85 713.527 5002.33 703.288 4997.37 694.394C4992.4 685.499 4985.78 678.57 4977.51 673.605C4969.44 668.641 4959.41 666.159 4947.41 666.159C4935.83 666.159 4926 668.641 4917.94 673.605C4909.87 678.57 4903.35 685.499 4898.39 694.394C4893.42 703.288 4889.81 713.527 4887.53 725.111C4885.46 736.487 4884.43 748.691 4884.43 761.723ZM5222.5 668.641V932.683H5125.38V596.968H5216.6L5222.5 668.641ZM5209.78 753.035L5185.58 753.656C5185.58 728.42 5188.68 705.77 5194.89 685.706C5201.09 665.642 5209.88 648.577 5221.26 634.511C5232.84 620.239 5246.6 609.379 5262.52 601.933C5278.66 594.486 5296.45 590.763 5315.89 590.763C5331.61 590.763 5345.99 593.038 5359.02 597.589C5372.05 602.139 5383.22 609.483 5392.53 619.618C5402.04 629.547 5409.28 642.785 5414.25 659.333C5419.21 675.674 5421.69 695.842 5421.69 719.836V932.683H5324.27V719.526C5324.27 705.46 5322.3 694.601 5318.37 686.947C5314.44 679.294 5308.65 673.916 5301 670.813C5293.55 667.71 5284.45 666.159 5273.69 666.159C5262.32 666.159 5252.6 668.434 5244.53 672.985C5236.46 677.329 5229.84 683.431 5224.67 691.291C5219.5 699.151 5215.67 708.356 5213.19 718.905C5210.92 729.455 5209.78 740.831 5209.78 753.035Z" fill="#1A4D8F"/>
<path d="M1066.83 612.646H929.52V644.335H1066.83V612.646Z" fill="#1A4D8F"/>
<path d="M710.569 314.744L586.227 242.955L570.383 270.398L694.725 342.187L710.569 314.744Z" fill="#1A4D8F"/>
<path d="M137.315 565.113H0V596.801H137.315V565.113Z" fill="#1A4D8F"/>
<path d="M1066.83 749.962V612.646H1035.14V749.962H1066.83Z" fill="#1A4D8F"/>
<path d="M1066.83 955.939V866.156H1035.14V955.939H1066.83Z" fill="#1A4D8F"/>
<path d="M439.388 1143.51L510.117 1021L482.674 1005.16L411.945 1127.66L439.388 1143.51Z" fill="#1A4D8F"/>
<path d="M961.207 565.115V454.207H929.519V565.115H961.207Z" fill="#1A4D8F"/>
<path d="M1066.83 565.115V401.393H1035.14V565.115H1066.83Z" fill="#1A4D8F"/>
<path d="M1167.18 1008.75V338.014H1135.49V1008.75H1167.18Z" fill="#1A4D8F"/>
<path d="M959.968 455.786L829.172 380.271L813.328 407.714L944.124 483.229L959.968 455.786Z" fill="#1A4D8F"/>
<path d="M605.337 1082.78L522.852 1035.16L507.008 1062.6L589.493 1110.23L605.337 1082.78Z" fill="#1A4D8F"/>
<path d="M142.586 448.925V396.111H110.898V448.925H142.586Z" fill="#1A4D8F"/>
<path d="M599.823 1205.15L470.035 1130.22L454.191 1157.66L583.979 1232.6L599.823 1205.15Z" fill="#1A4D8F"/>
<path d="M599.435 1321.55L396.105 1204.16L380.261 1231.6L583.591 1349L599.435 1321.55Z" fill="#1A4D8F"/>
<path d="M1050.72 927.829L569.102 1205.89L584.946 1233.33L1066.56 955.272L1050.72 927.829Z" fill="#1A4D8F"/>
<path d="M1152.35 982.329L569.496 1318.84L585.34 1346.28L1168.19 1009.77L1152.35 982.329Z" fill="#1A4D8F"/>
<path d="M506.746 1019.27L231.859 860.561L216.015 888.003L490.902 1046.71L506.746 1019.27Z" fill="#1A4D8F"/>
<path d="M452.561 1120.68L121.477 929.531L105.633 956.974L436.717 1148.13L452.561 1120.68Z" fill="#1A4D8F"/>
<path d="M274.858 1137.16L15.8516 987.619L0.00750732 1015.06L259.014 1164.6L274.858 1137.16Z" fill="#1A4D8F"/>
<path d="M961.207 892.56V644.336H929.519V892.56H961.207Z" fill="#1A4D8F"/>
<path d="M592.596 1106.73L961.762 893.588L945.918 866.145L576.752 1079.28L592.596 1106.73Z" fill="#1A4D8F"/>
<path d="M248.223 887.278L248.223 454.207H216.535L216.535 887.278H248.223Z" fill="#1A4D8F"/>
<path d="M137.313 955.933L137.312 565.113H105.624L105.624 955.933H137.313Z" fill="#1A4D8F"/>
<path d="M31.6875 1014.03L31.6875 565.113H-0.000610352L-0.000610352 1014.03H31.6875Z" fill="#1A4D8F"/>
<path d="M36.9648 543.987L36.9648 338.014H5.27676L5.27676 543.987H36.9648Z" fill="#1A4D8F"/>
<path d="M232.385 483.529L601.551 270.391L585.707 242.948L216.541 456.086L232.385 483.529Z" fill="#1A4D8F"/>
<path d="M126.595 423.296L602.277 148.66L586.433 121.217L110.751 395.853L126.595 423.296Z" fill="#1A4D8F"/>
<path d="M371.953 163.38L604.566 29.0801L588.722 1.63738L356.109 135.937L371.953 163.38Z" fill="#1A4D8F"/>
<path d="M20.4012 364.158L256 228.135L240.156 200.692L4.55719 336.715L20.4012 364.158Z" fill="#1A4D8F"/>
<path d="M570.391 27.4437L1152.84 363.721L1168.68 336.278L586.235 0.00098291L570.391 27.4437Z" fill="#1A4D8F"/>
<path d="M570.385 148.916L1051.88 426.908L1067.72 399.465L586.229 121.473L570.385 148.916Z" fill="#1A4D8F"/>
<path d="M374.971 1177.76C374.971 1209.84 348.961 1235.85 316.876 1235.85C284.791 1235.85 258.781 1209.84 258.781 1177.76C258.781 1145.67 284.791 1119.66 316.876 1119.66C348.961 1119.66 374.971 1145.67 374.971 1177.76ZM289.805 1177.76C289.805 1192.71 301.925 1204.83 316.876 1204.83C331.827 1204.83 343.947 1192.71 343.947 1177.76C343.947 1162.8 331.827 1150.68 316.876 1150.68C301.925 1150.68 289.805 1162.8 289.805 1177.76Z" fill="#1A4D8F"/>
<path d="M1109.08 829.179C1109.08 861.264 1083.07 887.274 1050.99 887.274C1018.9 887.274 992.895 861.264 992.895 829.179C992.895 797.094 1018.9 771.084 1050.99 771.084C1083.07 771.084 1109.08 797.094 1109.08 829.179ZM1023.92 829.179C1023.92 844.13 1036.04 856.25 1050.99 856.25C1065.94 856.25 1078.06 844.13 1078.06 829.179C1078.06 814.228 1065.94 802.107 1050.99 802.107C1036.04 802.107 1023.92 814.228 1023.92 829.179Z" fill="#1A4D8F"/>
<path d="M834.455 364.419C834.455 396.504 808.445 422.514 776.36 422.514C744.276 422.514 718.266 396.504 718.266 364.419C718.266 332.334 744.276 306.324 776.36 306.324C808.445 306.324 834.455 332.334 834.455 364.419ZM749.289 364.419C749.289 379.37 761.409 391.49 776.36 391.49C791.312 391.49 803.432 379.37 803.432 364.419C803.432 349.468 791.312 337.348 776.36 337.348C761.409 337.348 749.289 349.468 749.289 364.419Z" fill="#1A4D8F"/>
<path d="M374.971 174.296C374.971 206.381 348.961 232.391 316.876 232.391C284.791 232.391 258.781 206.381 258.781 174.296C258.781 142.211 284.791 116.201 316.876 116.201C348.961 116.201 374.971 142.211 374.971 174.296ZM289.805 174.296C289.805 189.247 301.925 201.367 316.876 201.367C331.827 201.367 343.947 189.247 343.947 174.296C343.947 159.345 331.827 147.225 316.876 147.225C301.925 147.225 289.805 159.345 289.805 174.296Z" fill="#1A4D8F"/>
<path d="M179.569 491.181C179.569 523.266 153.559 549.276 121.474 549.276C89.3889 549.276 63.3789 523.266 63.3789 491.181C63.3789 459.096 89.3889 433.086 121.474 433.086C153.559 433.086 179.569 459.096 179.569 491.181ZM94.4024 491.181C94.4024 506.132 106.523 518.252 121.474 518.252C136.425 518.252 148.545 506.132 148.545 491.181C148.545 476.23 136.425 464.109 121.474 464.109C106.523 464.109 94.4024 476.23 94.4024 491.181Z" fill="#1A4D8F"/>
<path fill-rule="evenodd" clip-rule="evenodd" d="M587.071 416.618C626.43 416.502 663.428 421.028 699.446 429.594C735.436 438.151 770.508 450.747 806.022 466.778L810.147 468.642L810.164 473.214C810.205 485.496 810.263 497.828 810.333 510.188C810.4 522.523 810.478 534.855 810.561 547.19L810.59 547.223H810.561C811.45 678.449 811.875 742.024 790.9 790.994C765.464 850.368 646.289 940.607 586.865 981.859L586.707 981.747V936.051C596.137 928.627 606.715 920.623 617.955 912.124C642.755 893.365 670.795 872.154 695.536 850.381C695.672 850.273 695.805 850.166 695.933 850.05C698.02 848.21 700.331 846.139 702.882 843.816C705.002 841.886 707.243 839.806 709.612 837.57L710.004 837.198L710.042 837.165C710.794 836.454 711.542 835.739 712.282 835.028L712.373 834.941C713.113 834.23 713.845 833.523 714.572 832.812L714.601 832.783C723.377 824.226 731.389 815.669 738.239 807.219C746.626 796.872 753.274 786.698 757.482 776.901L757.469 776.893L757.519 776.777C766.494 755.823 770.9 730.263 772.967 694.377C773.253 689.461 773.492 684.36 773.691 679.057C785.877 664.092 792.996 648.057 795.046 630.955C797.638 609.306 792 586.342 778.122 562.068C779.085 560.712 779.825 559.24 780.35 557.645C781.818 553.197 781.33 548.612 779.325 543.511C777.713 539.41 776.014 535.562 774.228 531.961C774.145 519.365 774.067 506.157 774.005 492.272C743.493 479.254 713.001 469.498 682.522 462.946C650.642 456.092 618.832 452.744 587.092 452.83H586.794H586.699V416.609H586.765H587.063L587.071 416.618Z" fill="#5D6770"/>
<path fill-rule="evenodd" clip-rule="evenodd" d="M586.723 981.739C523.809 937.242 412.856 864.395 384.291 797.711C373.564 772.668 368.169 743.69 365.573 704.682C368.239 707.746 371.269 710.805 374.705 713.818C376.66 715.732 379.43 716.786 382.365 716.452C384.213 716.237 386.362 715.844 388.917 715.265L389.558 715.12C391.418 727.253 395.068 739.221 400.426 750.767C404.626 759.816 409.305 767.984 414.431 775.227C415.444 778.067 416.519 780.824 417.668 783.503C437.895 830.72 506.162 878.991 559.634 916.804C569.117 923.509 578.133 929.883 586.644 936.101L586.719 936.043V981.739H586.723ZM586.723 452.83C555.111 452.946 523.388 456.497 491.549 463.405C461.09 470.015 430.624 479.701 400.145 492.396C400.07 509.961 399.967 526.463 399.868 542.048L399.859 543.11C399.682 571.816 399.52 597.355 399.582 620.232L380.463 627.797V627.809C373.729 630.116 368.053 632.931 363.44 636.254C363.221 609.244 363.415 578.45 363.634 542.965C363.704 531.32 363.775 519.675 363.837 508.03C363.899 496.348 363.948 484.707 363.99 473.119L364.006 468.498L368.19 466.658C403.646 451.065 438.73 438.626 474.699 430.044C510.66 421.467 547.575 416.75 586.719 416.609V452.83H586.723Z" fill="#5D6770"/>
<path fill-rule="evenodd" clip-rule="evenodd" d="M394.328 704.205C388.57 705.763 384.486 706.731 381.29 707.099C362.989 691.216 357.4 674.181 358.045 662.354C358.678 650.746 367.355 642.135 383.923 636.562C572.287 562.012 678.978 519.781 704.001 509.88C715.109 505.486 731.508 501.414 742.152 507.813C753.549 514.671 763.028 527.709 770.577 546.936C772.974 553.042 772.007 557.101 765.81 560.243C736.274 573.628 715.278 582.921 702.831 588.118C687.164 594.657 687.275 598.89 678.83 612.272C667.916 629.564 661.381 638.803 659.223 639.985C577.666 675.235 529.593 695.412 514.996 700.518C510.895 702.2 506.319 702.217 502.156 700.757C497.915 699.269 493.562 696.272 489.093 691.766C469.333 666.694 443.654 625.914 408.14 634.198C419.582 635 430.21 638.257 440.024 643.97C423.691 652.201 413.142 670.105 413.142 698.153C413.142 741.294 448.408 803.587 498.923 788.623C531.569 778.95 536.302 734.32 527.282 702.68L662.24 644.384C671.351 634.276 678.747 624.132 684.125 614.537C690.413 603.322 692.36 598.171 704.559 593.149C747.791 575.356 769.118 565.501 769.118 565.501C796.252 611.726 791.279 651.477 754.496 685.789L657.978 732.398L666.837 749.554C668.698 753.154 667.271 757.623 663.671 759.483L646.813 768.189L654.506 781.389C657.098 779.636 660.145 778.296 663.687 777.511L748.837 773.187C741.094 791.202 724.116 810.942 703.178 830.718C698.846 834.811 694.344 838.903 689.722 842.975C678.234 840.209 668.578 838.06 663.691 837.51C651.554 833.971 644.118 821.264 643.134 808.379L625.974 778.945L600.53 792.083C596.929 793.943 592.461 792.517 590.6 788.916L580.687 769.719L523.417 797.374C474.315 819.404 433.356 799.396 408.962 746.825C394.047 714.68 393.34 679.29 408.933 647.091C396.234 665.107 392.154 684.536 394.328 704.205ZM471.508 694.991C478.738 691.704 488.304 697.202 492.876 707.264C497.448 717.326 495.294 728.148 488.064 731.435C480.834 734.721 471.268 729.223 466.692 719.161C462.12 709.095 464.273 698.277 471.504 694.991H471.508ZM461.384 672.709C463.38 671.804 465.46 671.196 467.585 670.874C471.516 675.702 475.253 680.613 478.804 685.276H478.812L479.358 685.987C475.365 684.858 471.338 684.991 467.713 686.636C457.171 691.427 454.03 707.206 460.698 721.886C467.366 736.561 481.317 744.576 491.863 739.785C502.404 734.994 505.546 719.215 498.878 704.54C498.771 704.3 498.659 704.06 498.543 703.825C499.291 704.164 500.036 704.461 500.78 704.726C503.343 705.627 506.042 706.065 508.737 706.016C509.556 705.999 510.374 705.941 511.189 705.834C518.129 726.404 512.867 747.053 498.192 753.721C482.123 761.021 460.855 748.805 450.689 726.437C440.524 704.069 445.315 680.014 461.384 672.709Z" fill="#5D6770"/>
<path d="M5876.49 930.175L5517 417.154H5674.28L6033.77 930.175H5876.49Z" fill="#5D6770"/>
<path d="M5676.52 701.744L5517 930.169H5678.02L5756.66 817.829L5676.52 701.744Z" fill="#1A4D8F"/>
<path d="M6206.02 170H6048.74L5794.11 529.489L5876.49 641.829L6206.02 170Z" fill="#1A4D8F"/>
</g>
<defs>
<clipPath id="clip0_339_360">
<rect width="6245" height="1349" fill="white"/>
</clipPath>
</defs>
</svg>
